<?xml version="1.0" encoding="utf-8"?>
<!-- Generator: Adobe Illustrator 26.0.0, SVG Export Plug-In . SVG Version: 6.00 Build 0)  -->
<svg version="1.1" id="Layer_1" xmlns="http://www.w3.org/2000/svg" xmlns:xlink="http://www.w3.org/1999/xlink" x="0px" y="0px"
	 viewBox="0 0 1200 881.3" style="enable-background:new 0 0 1200 881.3;" xml:space="preserve">
<style type="text/css">
	.st0{fill:#0F113E;}
	.st1{fill:#203B72;}
	.st2{fill:#131448;}
</style>
<g>
	<g>
		<polyline class="st0" points="386.5,408.3 386.5,0 790,0 		"/>
		<polyline class="st1" points="813.5,10.6 813.5,418.8 410,418.8 		"/>
	</g>
	<path class="st2" d="M1197.4,781.2H2.6c-1.4,0-2.6-1.2-2.6-2.6s1.2-2.6,2.6-2.6h1194.8c1.4,0,2.6,1.2,2.6,2.6
		S1198.8,781.2,1197.4,781.2z"/>
	<g>
		<path class="st2" d="M44.7,871.4H22.3c-3,0-5.9-0.6-8.6-1.7c-2.7-1.1-5.1-2.7-7.2-4.8c-2.1-2.1-3.7-4.5-4.8-7.2
			C0.6,854.9,0,852,0,849c0-3,0.6-5.9,1.7-8.6c1.1-2.7,2.7-5.1,4.8-7.2c2.1-2.1,4.5-3.7,7.2-4.8c2.7-1.2,5.6-1.7,8.6-1.7
			c3,0,5.9,0.6,8.6,1.7c2.7,1.2,5.1,2.8,7.2,4.8c2.1,2.1,3.7,4.5,4.8,7.2c1.2,2.7,1.7,5.6,1.7,8.6c0,2.8-0.5,5.5-1.6,8.1
			c-1.1,2.6-2.6,5-4.7,7.1c-2,2.2-4.5,3.9-7.3,5.1h13.6V871.4z M2,849c0,2.7,0.5,5.3,1.6,7.8c1,2.5,2.5,4.7,4.4,6.6
			c1.9,1.9,4,3.4,6.5,4.4c2.5,1,5.1,1.6,7.8,1.6c2.7,0,5.3-0.5,7.8-1.6c2.5-1,4.7-2.5,6.6-4.4c1.9-1.9,3.4-4.1,4.4-6.6
			c1-2.5,1.6-5.1,1.6-7.8c0-2.7-0.5-5.3-1.6-7.8c-1-2.5-2.5-4.7-4.4-6.6c-1.9-1.9-4.1-3.4-6.6-4.4c-2.5-1-5.1-1.6-7.8-1.6
			c-2.7,0-5.3,0.5-7.8,1.6c-2.5,1-4.7,2.5-6.5,4.4c-1.9,1.9-3.3,4.1-4.4,6.6C2.6,843.7,2,846.3,2,849z"/>
		<path class="st2" d="M62.2,837.6h2v20.9c0,2,0.5,3.9,1.6,5.9c1,1.9,2.5,3.4,4.5,4.5c1.9,1,3.9,1.6,5.9,1.6c1.7,0,3.4-0.3,5-1
			c1.6-0.7,3-1.6,4.2-2.8c1.2-1.2,2.1-2.6,2.8-4.2c0.7-1.6,1-3.2,1-5v-19.8h2v33.7h-2v-6.9c-0.9,1.7-2,3.3-3.6,4.5
			c-1.5,1.3-3.1,2.2-4.8,2.7c-1.7,0.5-3.2,0.7-4.5,0.7c-1.9,0-3.6-0.4-5.3-1.1s-3.2-1.7-4.5-3c-1.3-1.3-2.3-2.8-3-4.5
			c-0.7-1.7-1.1-3.5-1.1-5.3V837.6z"/>
		<path class="st2" d="M144.2,837.6v33.7h-2v-8.7c-1.5,2.9-3.6,5.3-6.5,7c-2.9,1.8-6,2.7-9.4,2.7c-2.4,0-4.7-0.5-6.8-1.4
			c-2.2-0.9-4.1-2.2-5.8-3.8c-1.7-1.6-2.9-3.5-3.9-5.7c-0.9-2.2-1.4-4.5-1.4-6.9c0-1.7,0.3-3.6,0.9-5.6c0.6-2,1.8-4,3.5-6
			c1.7-2,3.8-3.6,6.2-4.6c2.5-1,4.9-1.6,7.3-1.6c3.4,0,6.6,0.9,9.4,2.7c2.9,1.8,5,4.1,6.5,7v-8.7H144.2z M142.3,854.5
			c0-2.1-0.4-4.1-1.2-6.1c-0.8-1.9-2-3.7-3.4-5.1c-1.5-1.5-3.2-2.6-5.1-3.4c-1.9-0.8-4-1.2-6.1-1.2c-2.1,0-4.1,0.4-6.1,1.2
			c-1.9,0.8-3.7,2-5.1,3.4c-1.5,1.5-2.6,3.2-3.4,5.1c-0.8,1.9-1.2,4-1.2,6.1c0,2.1,0.4,4.2,1.2,6.1c0.8,1.9,2,3.7,3.4,5.1
			c1.5,1.5,3.2,2.6,5.1,3.4c1.9,0.8,4,1.2,6.1,1.2c2.1,0,4.2-0.4,6.1-1.2c1.9-0.8,3.7-2,5.1-3.4c1.5-1.5,2.6-3.2,3.4-5.1
			C141.9,858.6,142.3,856.6,142.3,854.5z"/>
		<path class="st2" d="M162.9,871.4v-43.7h2v43.7H162.9z"/>
		<path class="st2" d="M183.1,828.1c0-0.3,0.1-0.7,0.4-1c0.3-0.3,0.6-0.4,1-0.4c0.3,0,0.7,0.1,1,0.4c0.3,0.3,0.4,0.6,0.4,1
			c0,0.3-0.1,0.7-0.4,1c-0.3,0.3-0.6,0.4-1,0.4c-0.3,0-0.7-0.1-1-0.4C183.3,828.7,183.1,828.4,183.1,828.1z M183.5,837.6h2v33.7h-2
			V837.6z"/>
		<path class="st2" d="M207.8,839.6v24.1c0,0.9,0.2,1.8,0.5,2.7c0.3,0.9,1,1.6,1.9,2.2c0.9,0.5,2,0.8,3.2,0.8h3.3v2h-3.3
			c-1,0-2.1-0.2-3.4-0.6c-1.2-0.4-2.2-1.2-3.1-2.4c-0.8-1.2-1.2-2.7-1.2-4.6v-24.2h-4v-2h4V830h2v7.6h9v2H207.8z"/>
		<path class="st2" d="M246,871.1l-15-33.5h2.2l13.8,31.1l13.9-31.1h2.2l-19.6,43.7h-2.2L246,871.1z"/>
		<path class="st2" d="M278.3,876h0.3c0.3,0,0.6-0.1,0.8-0.4c0.3-0.3,0.4-0.5,0.4-0.8v-2.9h-0.3c-0.5,0-0.9-0.2-1.3-0.6
			c-0.4-0.4-0.6-0.8-0.6-1.3c0-0.4,0.2-0.8,0.6-1.2c0.4-0.4,0.8-0.6,1.3-0.6c0.5,0,0.9,0.2,1.2,0.6c0.3,0.4,0.5,0.8,0.5,1.2v4.8
			c0,0.7-0.3,1.4-0.8,1.9c-0.5,0.5-1.2,0.8-1.9,0.8h-0.3V876z"/>
		<path class="st2" d="M372.5,871.4h-2v-40.6l-18.9,22.2h-1.7l-19.1-22.2v40.6h-2v-43.7h2l19.9,23.3l19.9-23.3h2V871.4z"/>
		<path class="st2" d="M425.9,854.5c0,2.4-0.5,4.7-1.4,6.9c-0.9,2.2-2.2,4.1-3.9,5.7c-1.7,1.6-3.6,2.9-5.8,3.8
			c-2.2,0.9-4.5,1.4-6.9,1.4c-2.4,0-4.7-0.5-6.8-1.4c-2.2-0.9-4.1-2.2-5.8-3.8c-1.7-1.6-2.9-3.5-3.9-5.7c-0.9-2.2-1.4-4.5-1.4-6.9
			c0-1.7,0.3-3.6,0.9-5.6c0.6-2,1.8-4,3.5-6c1.7-2,3.8-3.6,6.2-4.6c2.5-1,4.9-1.6,7.3-1.6c2.4,0,4.7,0.5,6.9,1.4
			c2.2,0.9,4.1,2.2,5.8,3.8c1.7,1.6,2.9,3.5,3.9,5.7C425.4,849.8,425.9,852.1,425.9,854.5z M423.8,854.5c0-2.1-0.4-4.1-1.2-6.1
			c-0.8-1.9-2-3.7-3.4-5.1c-1.5-1.5-3.2-2.6-5.1-3.4c-1.9-0.8-4-1.2-6.1-1.2c-2.1,0-4.1,0.4-6.1,1.2c-1.9,0.8-3.7,2-5.1,3.4
			c-1.5,1.5-2.6,3.2-3.4,5.1c-0.8,1.9-1.2,4-1.2,6.1c0,2.1,0.4,4.2,1.2,6.1c0.8,1.9,2,3.7,3.4,5.1c1.5,1.5,3.2,2.6,5.1,3.4
			c1.9,0.8,4,1.2,6.1,1.2c2.1,0,4.2-0.4,6.1-1.2c1.9-0.8,3.7-2,5.1-3.4c1.5-1.5,2.6-3.2,3.4-5.1
			C423.4,858.6,423.8,856.6,423.8,854.5z"/>
		<path class="st2" d="M477.4,827.6v43.7h-2v-8.7c-1.5,2.9-3.7,5.3-6.5,7c-2.9,1.8-6,2.7-9.4,2.7c-2.4,0-4.7-0.5-6.8-1.4
			c-2.2-0.9-4.1-2.2-5.8-3.8c-1.7-1.6-2.9-3.5-3.9-5.7c-0.9-2.2-1.4-4.5-1.4-6.9c0-1.7,0.3-3.6,0.9-5.6c0.6-2,1.8-4,3.5-6
			c1.7-2,3.8-3.6,6.2-4.6c2.5-1,4.9-1.6,7.3-1.6c3.4,0,6.5,0.9,9.4,2.7c2.9,1.8,5.1,4.1,6.5,7v-18.7H477.4z M475.4,854.5
			c0-2.1-0.4-4.1-1.2-6.1c-0.8-1.9-2-3.7-3.4-5.1c-1.5-1.5-3.2-2.6-5.1-3.4c-1.9-0.8-4-1.2-6.1-1.2c-2.1,0-4.2,0.4-6.1,1.2
			c-1.9,0.8-3.6,2-5.1,3.4c-1.5,1.5-2.6,3.2-3.4,5.1c-0.8,1.9-1.2,4-1.2,6.1c0,1.6,0.3,3.3,0.8,5c0.5,1.8,1.6,3.6,3.1,5.4
			c1.5,1.8,3.3,3.2,5.5,4.1c2.2,0.9,4.3,1.4,6.5,1.4c2.1,0,4.2-0.4,6.1-1.2c1.9-0.8,3.6-2,5.1-3.4c1.5-1.5,2.6-3.2,3.4-5.1
			C475,858.6,475.4,856.6,475.4,854.5z"/>
		<path class="st2" d="M530.5,854.5v1h-33.6c0.1,2,0.6,3.9,1.5,5.8c0.9,1.8,2,3.4,3.5,4.8c1.5,1.4,3.1,2.4,5,3.2
			c1.9,0.8,3.8,1.1,5.9,1.1c3,0,5.7-0.8,8.2-2.4c2.5-1.6,4.4-3.7,5.8-6.2h2.2c-1.4,3.1-3.6,5.7-6.5,7.7c-2.9,2-6.2,2.9-9.7,2.9
			c-2.4,0-4.7-0.5-6.8-1.4c-2.2-0.9-4.1-2.2-5.8-3.9c-1.7-1.7-2.9-3.6-3.9-5.8c-0.9-2.2-1.4-4.5-1.4-6.8s0.5-4.7,1.4-6.8
			c0.9-2.2,2.2-4.1,3.9-5.8c1.7-1.7,3.6-2.9,5.8-3.9c2.2-0.9,4.5-1.4,6.8-1.4c2.4,0,4.7,0.5,6.8,1.4c2.2,0.9,4.1,2.2,5.7,3.9
			c1.6,1.7,2.9,3.6,3.8,5.8C530.1,849.8,530.5,852.1,530.5,854.5z M496.9,853.5h31.6c-0.2-2-0.7-3.9-1.5-5.8c-0.9-1.8-2-3.4-3.4-4.8
			c-1.4-1.4-3.1-2.4-4.9-3.2c-1.9-0.8-3.8-1.1-5.9-1.1c-2,0-4,0.4-5.9,1.1c-1.9,0.8-3.6,1.8-5,3.2c-1.5,1.4-2.6,3-3.5,4.8
			C497.5,849.5,497,851.4,496.9,853.5z"/>
		<path class="st2" d="M550,871.4h-2v-33.7h2v4.7c1.1-1.7,2.6-3.1,4.4-4.1c1.9-1,3.9-1.5,6-1.5h0.5v2h-0.5c-1.4,0-2.7,0.3-4,0.8
			c-1.3,0.5-2.4,1.3-3.4,2.2c-1,1-1.7,2.1-2.2,3.4c-0.5,1.3-0.8,2.6-0.8,4V871.4z"/>
		<path class="st2" d="M605.8,871.4h-2v-20.9c0-1.6-0.3-3.1-0.9-4.5c-0.6-1.5-1.5-2.7-2.6-3.8c-1.1-1.1-2.4-2-3.8-2.6
			c-1.5-0.6-3-0.9-4.6-0.9c-1.3,0-2.6,0.2-4.1,0.7c-1.4,0.4-2.9,1.3-4.3,2.5c-1.5,1.2-2.6,2.7-3.4,4.5c-0.8,1.8-1.1,3.5-1.1,5.3
			v19.8h-2v-33.7h2v6.6c0.9-1.6,2.2-3.1,3.7-4.3c1.5-1.2,3.1-2.1,4.8-2.6c1.7-0.5,3.1-0.7,4.4-0.7c1.4,0,2.9,0.2,4.4,0.7
			c1.6,0.5,3.1,1.4,4.7,2.7c1.6,1.3,2.8,2.9,3.6,4.8c0.8,1.9,1.2,3.8,1.2,5.7V871.4z"/>
		<path class="st2" d="M624,828.1c0-0.3,0.1-0.7,0.4-1c0.3-0.3,0.6-0.4,1-0.4c0.3,0,0.7,0.1,1,0.4c0.3,0.3,0.4,0.6,0.4,1
			c0,0.3-0.1,0.7-0.4,1c-0.3,0.3-0.6,0.4-1,0.4c-0.4,0-0.7-0.1-1-0.4C624.2,828.7,624,828.4,624,828.1z M624.4,837.6h2v33.7h-2
			V837.6z"/>
		<path class="st2" d="M648.7,839.6v24.1c0,0.9,0.2,1.8,0.5,2.7c0.3,0.9,1,1.6,1.9,2.2c0.9,0.5,2,0.8,3.2,0.8h3.3v2h-3.3
			c-1,0-2.1-0.2-3.4-0.6c-1.2-0.4-2.2-1.2-3.1-2.4c-0.8-1.2-1.2-2.7-1.2-4.6v-24.2h-4v-2h4V830h2v7.6h9v2H648.7z"/>
		<path class="st2" d="M686.9,871.1l-15-33.5h2.2l13.8,31.1l13.9-31.1h2.2l-19.6,43.7h-2.2L686.9,871.1z"/>
		<path class="st2" d="M719.2,876h0.4c0.3,0,0.6-0.1,0.8-0.4c0.3-0.3,0.4-0.5,0.4-0.8v-2.9h-0.3c-0.5,0-0.9-0.2-1.3-0.6
			c-0.4-0.4-0.6-0.8-0.6-1.3c0-0.4,0.2-0.8,0.6-1.2c0.4-0.4,0.8-0.6,1.3-0.6c0.5,0,0.9,0.2,1.2,0.6c0.3,0.4,0.5,0.8,0.5,1.2v4.8
			c0,0.7-0.3,1.4-0.8,1.9c-0.5,0.5-1.2,0.8-1.9,0.8h-0.4V876z"/>
		<path class="st2" d="M771.7,869.4h29.8v2h-31.8v-43.7h31.8v2h-29.8v18.9h25.8v2h-25.8V869.4z"/>
		<path class="st2" d="M832.1,854.5l13.5,16.9H843l-12.2-15.3l-12.1,15.3h-2.6l13.4-16.9l-13.4-16.8h2.6l12.1,15.3l12.2-15.3h2.6
			L832.1,854.5z"/>
		<path class="st2" d="M861.6,881.3v-43.7h2v8.7c1.5-2.9,3.7-5.3,6.5-7c2.9-1.8,6-2.7,9.4-2.7c2.4,0,4.7,0.5,6.8,1.4
			c2.2,0.9,4.1,2.2,5.8,3.8c1.7,1.6,2.9,3.5,3.9,5.7c0.9,2.2,1.4,4.5,1.4,6.9c0,1.7-0.3,3.6-0.9,5.6c-0.6,2-1.8,4-3.5,6
			c-1.7,2-3.8,3.6-6.2,4.6c-2.5,1-4.9,1.6-7.3,1.6c-3.4,0-6.5-0.9-9.4-2.7c-2.9-1.8-5.1-4.1-6.5-7v18.7H861.6z M863.5,854.5
			c0,2.1,0.4,4.1,1.2,6.1c0.8,1.9,2,3.7,3.4,5.1c1.5,1.5,3.2,2.6,5.1,3.4c1.9,0.8,4,1.2,6.1,1.2c2.1,0,4.2-0.4,6.1-1.2
			c1.9-0.8,3.6-2,5.1-3.4c1.5-1.5,2.6-3.2,3.4-5.1c0.8-1.9,1.2-4,1.2-6.1c0-1.6-0.3-3.3-0.8-5c-0.5-1.8-1.6-3.6-3.1-5.4
			c-1.5-1.8-3.3-3.2-5.5-4.1c-2.2-0.9-4.3-1.4-6.5-1.4c-2.1,0-4.2,0.4-6.1,1.2c-1.9,0.8-3.6,2-5.1,3.4c-1.5,1.5-2.6,3.2-3.4,5.1
			C864,850.3,863.5,852.4,863.5,854.5z"/>
		<path class="st2" d="M948.8,854.5v1h-33.6c0.1,2,0.6,3.9,1.5,5.8c0.9,1.8,2,3.4,3.5,4.8c1.5,1.4,3.1,2.4,5,3.2
			c1.9,0.8,3.8,1.1,5.9,1.1c3,0,5.7-0.8,8.2-2.4c2.5-1.6,4.4-3.7,5.8-6.2h2.2c-1.4,3.1-3.6,5.7-6.5,7.7c-2.9,2-6.2,2.9-9.7,2.9
			c-2.4,0-4.7-0.5-6.8-1.4c-2.2-0.9-4.1-2.2-5.8-3.9c-1.7-1.7-2.9-3.6-3.9-5.8c-0.9-2.2-1.4-4.5-1.4-6.8s0.5-4.7,1.4-6.8
			c0.9-2.2,2.2-4.1,3.9-5.8c1.7-1.7,3.6-2.9,5.8-3.9c2.2-0.9,4.5-1.4,6.8-1.4c2.4,0,4.7,0.5,6.8,1.4c2.2,0.9,4.1,2.2,5.7,3.9
			c1.6,1.7,2.9,3.6,3.8,5.8C948.3,849.8,948.8,852.1,948.8,854.5z M915.1,853.5h31.6c-0.2-2-0.7-3.9-1.5-5.8c-0.9-1.8-2-3.4-3.4-4.8
			c-1.4-1.4-3.1-2.4-4.9-3.2c-1.9-0.8-3.8-1.1-5.9-1.1c-2,0-4,0.4-5.9,1.1c-1.9,0.8-3.6,1.8-5,3.2c-1.5,1.4-2.6,3-3.5,4.8
			C915.7,849.5,915.2,851.4,915.1,853.5z"/>
		<path class="st2" d="M968.2,871.4h-2v-33.7h2v4.7c1.1-1.7,2.6-3.1,4.4-4.1c1.9-1,3.9-1.5,6-1.5h0.5v2h-0.5c-1.4,0-2.7,0.3-4,0.8
			c-1.3,0.5-2.4,1.3-3.4,2.2c-1,1-1.7,2.1-2.2,3.4c-0.5,1.3-0.8,2.6-0.8,4V871.4z"/>
		<path class="st2" d="M994.8,828.1c0-0.3,0.1-0.7,0.4-1c0.3-0.3,0.6-0.4,1-0.4c0.3,0,0.7,0.1,1,0.4c0.3,0.3,0.4,0.6,0.4,1
			c0,0.3-0.1,0.7-0.4,1c-0.3,0.3-0.6,0.4-1,0.4c-0.4,0-0.7-0.1-1-0.4C994.9,828.7,994.8,828.4,994.8,828.1z M995.2,837.6h2v33.7h-2
			V837.6z"/>
		<path class="st2" d="M1050.3,854.5v1h-33.6c0.1,2,0.6,3.9,1.5,5.8c0.9,1.8,2,3.4,3.5,4.8c1.5,1.4,3.1,2.4,5,3.2
			c1.9,0.8,3.8,1.1,5.9,1.1c3,0,5.7-0.8,8.2-2.4c2.5-1.6,4.4-3.7,5.8-6.2h2.2c-1.4,3.1-3.6,5.7-6.5,7.7c-2.9,2-6.2,2.9-9.7,2.9
			c-2.4,0-4.7-0.5-6.8-1.4c-2.2-0.9-4.1-2.2-5.8-3.9c-1.7-1.7-2.9-3.6-3.9-5.8s-1.4-4.5-1.4-6.8s0.5-4.7,1.4-6.8
			c0.9-2.2,2.2-4.1,3.9-5.8c1.7-1.7,3.6-2.9,5.8-3.9c2.2-0.9,4.5-1.4,6.8-1.4c2.4,0,4.7,0.5,6.8,1.4c2.2,0.9,4.1,2.2,5.7,3.9
			c1.6,1.7,2.9,3.6,3.8,5.8C1049.9,849.8,1050.3,852.1,1050.3,854.5z M1016.7,853.5h31.6c-0.2-2-0.7-3.9-1.5-5.8
			c-0.9-1.8-2-3.4-3.4-4.8c-1.4-1.4-3.1-2.4-4.9-3.2c-1.9-0.8-3.8-1.1-5.9-1.1c-2,0-4,0.4-5.9,1.1c-1.9,0.8-3.6,1.8-5,3.2
			c-1.5,1.4-2.6,3-3.5,4.8C1017.3,849.5,1016.8,851.4,1016.7,853.5z"/>
		<path class="st2" d="M1096.6,871.4h-2v-20.9c0-1.6-0.3-3.1-0.9-4.5c-0.6-1.5-1.5-2.7-2.6-3.8c-1.1-1.1-2.4-2-3.8-2.6
			c-1.5-0.6-3-0.9-4.6-0.9c-1.3,0-2.6,0.2-4.1,0.7c-1.4,0.4-2.9,1.3-4.3,2.5c-1.5,1.2-2.6,2.7-3.4,4.5c-0.8,1.8-1.1,3.5-1.1,5.3
			v19.8h-2v-33.7h2v6.6c0.9-1.6,2.2-3.1,3.7-4.3c1.5-1.2,3.1-2.1,4.8-2.6c1.7-0.5,3.1-0.7,4.4-0.7c1.4,0,2.9,0.2,4.4,0.7
			c1.6,0.5,3.1,1.4,4.7,2.7c1.6,1.3,2.8,2.9,3.6,4.8c0.8,1.9,1.2,3.8,1.2,5.7V871.4z"/>
		<path class="st2" d="M1148.8,848.5h-2.1c-1.2-3-3.1-5.4-5.8-7.2c-2.7-1.8-5.7-2.8-9-2.8c-2.1,0-4.1,0.4-6.1,1.3
			c-1.9,0.8-3.6,2-5.1,3.4c-1.5,1.5-2.6,3.2-3.4,5.1c-0.8,2-1.2,4-1.2,6.1s0.4,4.1,1.2,6.1c0.8,2,2,3.7,3.4,5.1
			c1.5,1.5,3.2,2.6,5.1,3.4c1.9,0.8,4,1.3,6.1,1.3c3.3,0,6.3-0.9,9-2.8c2.7-1.8,4.6-4.2,5.8-7.2h2.1c-1.2,3.5-3.4,6.4-6.5,8.6
			c-3.1,2.2-6.6,3.4-10.4,3.4c-1.7,0-3.6-0.3-5.6-0.9c-2-0.6-4-1.8-6-3.5s-3.6-3.8-4.6-6.2c-1-2.5-1.6-4.9-1.6-7.3s0.5-4.7,1.4-6.8
			c0.9-2.2,2.2-4.1,3.8-5.8c1.6-1.7,3.5-2.9,5.7-3.9c2.2-0.9,4.5-1.4,6.8-1.4c3.8,0,7.3,1.1,10.4,3.4
			C1145.4,842.1,1147.6,845,1148.8,848.5z"/>
		<path class="st2" d="M1200,854.5v1h-33.6c0.1,2,0.6,3.9,1.5,5.8c0.9,1.8,2,3.4,3.5,4.8c1.5,1.4,3.1,2.4,5,3.2
			c1.9,0.8,3.8,1.1,5.9,1.1c3,0,5.7-0.8,8.2-2.4c2.5-1.6,4.4-3.7,5.8-6.2h2.2c-1.4,3.1-3.6,5.7-6.5,7.7c-2.9,2-6.2,2.9-9.7,2.9
			c-2.4,0-4.7-0.5-6.8-1.4c-2.2-0.9-4.1-2.2-5.8-3.9c-1.7-1.7-2.9-3.6-3.9-5.8s-1.4-4.5-1.4-6.8s0.5-4.7,1.4-6.8
			c0.9-2.2,2.2-4.1,3.9-5.8c1.7-1.7,3.6-2.9,5.8-3.9c2.2-0.9,4.5-1.4,6.8-1.4c2.4,0,4.7,0.5,6.8,1.4c2.2,0.9,4.1,2.2,5.7,3.9
			c1.6,1.7,2.9,3.6,3.8,5.8C1199.5,849.8,1200,852.1,1200,854.5z M1166.4,853.5h31.6c-0.2-2-0.7-3.9-1.5-5.8c-0.9-1.8-2-3.4-3.4-4.8
			c-1.4-1.4-3.1-2.4-4.9-3.2c-1.9-0.8-3.8-1.1-5.9-1.1c-2,0-4,0.4-5.9,1.1c-1.9,0.8-3.6,1.8-5,3.2c-1.5,1.4-2.6,3-3.5,4.8
			C1167,849.5,1166.5,851.4,1166.4,853.5z"/>
	</g>
	<g>
		<g>
			<g>
				<path class="st2" d="M0,624.3v101.9c0,1.7,1.4,3,3.1,3s3.1-1.3,3.1-3V624.3H0z"/>
				<path class="st2" d="M129.5,596.7l-61.4,99.5L6.9,597.9c-0.5-0.7-1.3-1.2-2.2-1.2h0c-2,0-3.2,2.3-2.1,4l3.6,5.4L64,699.9
					c0.6,1,1.5,1.8,2.7,2.2c2.2,0.7,4.5-0.2,5.7-2.1l57.1-94v120.2c0,1.7,1.4,3,3.1,3s3.1-1.3,3.1-3V596.7H129.5z"/>
			</g>
		</g>
		<g>
			<g>
				<path class="st2" d="M175.9,624.3v101.9c0,1.7,1.4,3,3.1,3s3.1-1.3,3.1-3V624.3H175.9z"/>
				<path class="st2" d="M305.5,596.7L244,696.1l-61.2-98.3c-0.5-0.7-1.3-1.2-2.2-1.2l0,0c-2,0-3.2,2.3-2.1,4l3.6,5.4l57.9,93.8
					c0.6,1,1.5,1.8,2.7,2.2c2.2,0.7,4.5-0.2,5.7-2.1l57.1-94v120.2c0,1.7,1.4,3,3.1,3s3.1-1.3,3.1-3V596.7H305.5z"/>
			</g>
		</g>
		<g>
			<g>
				<g>
					<path class="st2" d="M442.3,683.9c-3.1-6.2-8.5-11.4-14.6-14.9c-8.9-5.1-19.1-7.2-29.2-8.9s-20.4-3.2-29.8-7.3
						c-4.7-2-9.3-4.8-12.3-9c-5-6.9-4.9-16.7-0.8-24.2c4.1-7.5,11.7-12.6,19.8-15.1c8.2-2.5,16.9-2.5,25.3-1.5
						c9.1,1.1,18.5,3.6,25,9.9c1.8,1.7,4.3,3.9,6.4,2.5c1.2-0.8,1.5-2.5,1-3.9s-1.5-2.4-2.6-3.3c-9-7.7-21.1-10.8-33-11.5
						c-9.6-0.6-19.4,0.3-28.3,3.8s-16.9,10.1-21,18.7c-4.1,8.7-3.9,19.6,1.7,27.4c4.5,6.4,11.9,10.2,19.4,12.7
						c15.4,5.1,32,5.9,47.2,11.5c9,3.3,18.1,9.1,20.9,18.3c2.7,9-1.6,19.1-8.8,25.1c-7.2,6-16.8,8.5-26.2,9.1
						c-18.8,1.2-37.9-4.7-52.8-16.2c-1.6-1.3-3.5-2.7-5.5-2.4c-2.1,0.3-3.1,3.1-2.2,4.8c1,1.9,4,3.5,5.7,4.7
						c4.5,3.2,9.3,5.8,14.4,7.9c10.4,4.3,21.6,6.4,32.8,6.8c11.7,0.5,24-1,34.1-7c10.1-6,17.6-17.4,16.4-29.1
						C444.7,689.8,443.7,686.8,442.3,683.9z"/>
				</g>
			</g>
			<path class="st2" d="M345.5,696.5h-6.9v-11.6c0-2.6,2.1-4.7,4.7-4.7h2.3V696.5z"/>
		</g>
		<path class="st2" d="M759.5,663.7c6.6-7.6,9.9-16.3,9.9-26.2c0-5.4-1.2-11-3.6-16.6c-2.4-5.7-5.9-10.4-10.5-14.2
			c-4.6-3.8-9.2-6.4-13.7-7.9c-4.5-1.4-8.8-2.1-12.8-2.1h-43.9v6h43.9c4.6,0,9.3,1,14,3.1c4.8,2.1,8.8,5.1,12,9
			c3.2,3.9,5.4,7.9,6.6,11.7c1.2,3.9,1.8,7.5,1.8,11c0,4.6-0.9,9-2.7,13.3c-1.8,4.2-4.2,8-7.4,11.1c-3.2,3.2-6.9,5.7-11.1,7.4
			c-4.2,1.8-8.7,2.6-13.3,2.6h-52.8v-45.1h-6v102.3h6v-51.2h52.8l25.4,51.2h6.9l-26-51.6C744.8,675.9,752.9,671.3,759.5,663.7z"/>
		<path class="st2" d="M915.1,637.6c-3.4-8.1-8.2-15.2-14.4-21.4c-6.1-6.1-13.3-10.9-21.4-14.4c-8.1-3.4-16.6-5.2-25.4-5.2
			c-8.9,0-17.4,1.7-25.5,5.2c-3.5,1.5-6.8,3.3-10,5.3c1.2,1.5,2.4,3.1,3.5,4.7c2.8-1.8,5.7-3.3,8.9-4.6c7.4-3.2,15.2-4.7,23.2-4.7
			c8,0,15.7,1.6,23.2,4.7c7.4,3.2,13.9,7.5,19.4,13.1c5.5,5.6,9.9,12.1,13,19.5c3.2,7.4,4.7,15.2,4.7,23.2c0,8.1-1.6,15.9-4.7,23.3
			c-3.2,7.4-7.5,13.9-13,19.4c-5.5,5.5-12,9.9-19.4,13c-7.4,3.2-15.2,4.7-23.2,4.7c-8,0-15.7-1.6-23.2-4.7
			c-7.4-3.2-13.9-7.5-19.4-13c-5.5-5.5-9.9-12-13-19.4c-3.2-7.4-4.7-15.2-4.7-23.3c0-8,1.6-15.7,4.7-23.2c1.8-4.3,4-8.3,6.7-11.9
			c-1.6-1.1-3.2-2.2-5.1-3c-2.8,4-5.2,8.2-7.1,12.8c-3.4,8.1-5.2,16.6-5.2,25.4c0,8.8,1.7,17.2,5.2,25.4c3.4,8.1,8.2,15.2,14.3,21.4
			c6.1,6.1,13.2,10.9,21.3,14.4c8.1,3.4,16.6,5.2,25.5,5.2c8.8,0,17.2-1.7,25.4-5.2s15.2-8.2,21.4-14.4c6.1-6.1,10.9-13.3,14.4-21.4
			c3.4-8.1,5.2-16.6,5.2-25.4C920.2,654.1,918.5,645.7,915.1,637.6z"/>
		<g>
			<path class="st2" d="M985.4,722.2c-6.2-2.3-11.7-5.6-16.4-9.7c-4.7-4.1-8.4-9-11-14.5c-2.6-5.6-4-11.4-4-17.3v-84h-6.7v84
				c0,6.8,1.5,13.4,4.5,19.6c3,6.3,7.1,11.8,12.4,16.5c5.3,4.7,11.5,8.4,18.6,11c1.4,0.5,2.8,1,4.3,1.4c0.2-2.1,0.6-4,1.5-5.9
				C987.5,723,986.4,722.6,985.4,722.2z"/>
			<path class="st2" d="M1055.5,596.7v84c0,6.1-1.3,11.9-4,17.4c-2.6,5.5-6.3,10.3-10.9,14.4c-4.6,4.1-10.1,7.3-16.3,9.7
				c-1.1,0.4-2.2,0.8-3.3,1.1c1.1,1.6,1.8,3.6,2.5,5.6c1.1-0.4,2.3-0.7,3.4-1.1c7-2.6,13.2-6.3,18.5-11c5.3-4.7,9.4-10.2,12.4-16.5
				c3-6.3,4.5-12.8,4.5-19.6v-84H1055.5z"/>
		</g>
		<g>
			<path class="st2" d="M1196.4,620.9c-2.4-5.7-5.9-10.4-10.5-14.2c-4.6-3.8-9.2-6.4-13.7-7.9c-4.5-1.4-8.8-2.1-12.8-2.1h-35.7v6
				h35.7c4.6,0,9.3,1,14,3.1c4.8,2.1,8.8,5.1,12,9c3.2,3.9,5.4,7.9,6.6,11.7c1.2,3.9,1.8,7.5,1.8,11c0,4.6-0.9,9-2.7,13.3
				c-1.8,4.2-4.2,8-7.4,11.1c-3.2,3.2-6.9,5.7-11.1,7.4c-4.2,1.8-8.7,2.6-13.3,2.6h-52.8v-40.5h-6v97.7h6v-51.2h52.8
				c6.7,0,13.4-1.8,20-5.4c6.6-3.6,11.7-8.7,15.3-15.2c3.6-6.5,5.4-13.2,5.4-19.9C1200,632.1,1198.8,626.5,1196.4,620.9z"/>
		</g>
		<g>
			<g>
				<path class="st2" d="M636.6,672.9c-0.2,1.8-0.6,3.7-1.1,5.6c-0.3,1.1-1.2,4.9-3.2,9.6c-3,7.1-7.1,13.3-12.3,18.5
					c-5.1,5.2-11,9.4-17.7,12.3c-6.7,3-13.7,4.5-21,4.5c-8,0-15.7-1.6-23.2-4.7c-7.4-3.2-13.9-7.5-19.4-13c-5.5-5.5-9.9-12-13-19.4
					c-3.2-7.4-4.7-15.2-4.7-23.3c0-8,1.6-15.7,4.7-23.2c3.2-7.4,7.5-13.9,13-19.5c5.5-5.6,12-9.9,19.4-13.1
					c7.4-3.2,15.2-4.7,23.2-4.7c7.5,0,14.5,1.2,20.8,3.7c6.3,2.5,11.8,5.5,16.4,9.1c4.6,3.6,8.4,7.5,11.4,11.7c3,4.2,5.3,8.2,7,12.2
					h6.3c-2.4-6.1-5.6-11.7-9.7-17c-4.1-5.2-8.9-9.7-14.3-13.5c-5.4-3.8-11.4-6.7-17.8-8.8c-6.5-2.1-13.2-3.1-20-3.1
					c-8.8,0-17.2,1.7-25.4,5.2c-8.1,3.4-15.2,8.2-21.4,14.4c-6.1,6.1-10.9,13.3-14.4,21.4c-3.4,8.1-5.2,16.6-5.2,25.4
					c0,8.8,1.7,17.2,5.2,25.4c3.4,8.1,8.2,15.2,14.4,21.4c6.1,6.1,13.3,10.9,21.4,14.4c8.1,3.4,16.6,5.2,25.4,5.2
					c12.5,0,23.9-3.6,34.1-10.9c10.2-7.3,17.6-16.7,22.2-28.3v36.3h5.7v-53.4H636.6z"/>
				<rect x="602.4" y="660" class="st2" width="40.7" height="5.7"/>
			</g>
		</g>
	</g>
</g>
</svg>
