<svg xmlns="http://www.w3.org/2000/svg" width="31.106" height="37.127" viewBox="0 0 31.106 37.127">
  <g id="Group_610" data-name="Group 610" transform="translate(-4.5 -2.5)">
    <path id="Path_2246" data-name="Path 2246" d="M14,3v8.028a2.007,2.007,0,0,0,2.007,2.007h8.028" transform="translate(9.064)" fill="none" stroke="#000" stroke-linecap="round" stroke-linejoin="round" stroke-width="1"/>
    <path id="Path_2247" data-name="Path 2247" d="M5,21.064V7.014A4.014,4.014,0,0,1,9.014,3h14.05L33.1,13.035v8.028" fill="none" stroke="#000" stroke-linecap="round" stroke-linejoin="round" stroke-width="1"/>
    <path id="Path_2248" data-name="Path 2248" d="M5,21.021H8.011a3.011,3.011,0,0,0,0-6.021H5V27.042" transform="translate(0 12.085)" fill="none" stroke="#000" stroke-linecap="round" stroke-linejoin="round" stroke-width="1"/>
    <path id="Path_2249" data-name="Path 2249" d="M17,18h4.014" transform="translate(12.085 15.106)" fill="none" stroke="#000" stroke-linecap="round" stroke-linejoin="round" stroke-width="1"/>
    <path id="Path_2250" data-name="Path 2250" d="M23.021,15H17V27.042" transform="translate(12.085 12.085)" fill="none" stroke="#000" stroke-linecap="round" stroke-linejoin="round" stroke-width="1"/>
    <path id="Path_2251" data-name="Path 2251" d="M11,15V27.042h2.007a4.014,4.014,0,0,0,4.014-4.014V19.014A4.014,4.014,0,0,0,13.007,15Z" transform="translate(6.042 12.085)" fill="none" stroke="#000" stroke-linecap="round" stroke-linejoin="round" stroke-width="1"/>
  </g>
</svg>
