<svg xmlns="http://www.w3.org/2000/svg" width="19" height="19" viewBox="0 0 19 19">
  <g id="Group_24" data-name="Group 24" transform="translate(-2.5 -2.5)">
    <path id="Path_30" data-name="Path 30" d="M5,4H9l2,5L8.5,10.5a11,11,0,0,0,5,5L15,13l5,2v4a2,2,0,0,1-2,2A16,16,0,0,1,3,6,2,2,0,0,1,5,4" fill="none" stroke="#000" stroke-linecap="round" stroke-linejoin="round" stroke-width="1"/>
    <path id="Path_31" data-name="Path 31" d="M15,7a2,2,0,0,1,2,2" fill="none" stroke="#000" stroke-linecap="round" stroke-linejoin="round" stroke-width="1"/>
    <path id="Path_32" data-name="Path 32" d="M15,3a6,6,0,0,1,6,6" fill="none" stroke="#000" stroke-linecap="round" stroke-linejoin="round" stroke-width="1"/>
  </g>
</svg>
